<svg width="48" height="48" viewBox="0 0 48 48" fill="none" xmlns="http://www.w3.org/2000/svg">
<path fill-rule="evenodd" clip-rule="evenodd" d="M24.8998 15.2999C24.3751 14.9064 23.6555 14.8993 23.1233 15.2826L10.6233 24.2826C9.95105 24.7666 9.79834 25.704 10.2825 26.3764C10.7665 27.0486 11.7039 27.2012 12.3762 26.7172L23.9816 18.3613L35.0997 26.6998C35.7625 27.1969 36.7028 27.0626 37.1997 26.3999C37.6968 25.7372 37.5625 24.7969 36.8998 24.2999L24.8998 15.2999ZM11.0007 29.9999C10.4485 29.9999 10.0007 30.4476 10.0007 30.9999V31.9999C10.0007 32.5521 10.4485 32.9999 11.0007 32.9999H37.0007C37.553 32.9999 38.0007 32.5521 38.0007 31.9999V30.9999C38.0007 30.4476 37.553 29.9999 37.0007 29.9999H11.0007Z" fill="#FAF6F6"/>
</svg>
