<svg width="48" height="48" viewBox="0 0 48 48" fill="none" xmlns="http://www.w3.org/2000/svg">
<path fill-rule="evenodd" clip-rule="evenodd" d="M30 22.5C30 26.6421 26.6421 30 22.5 30C18.3579 30 15 26.6421 15 22.5C15 18.3579 18.3579 15 22.5 15C26.6421 15 30 18.3579 30 22.5ZM28.7882 30.9095C27.0353 32.2224 24.8585 33 22.5 33C16.701 33 12 28.299 12 22.5C12 16.701 16.701 12 22.5 12C28.299 12 33 16.701 33 22.5C33 24.8585 32.2224 27.0353 30.9095 28.7882L40.0607 37.9393C40.6465 38.5251 40.6465 39.4749 40.0607 40.0607C39.4749 40.6465 38.5251 40.6465 37.9393 40.0607L28.7882 30.9095Z" fill="white"/>
</svg>
